<svg width="247.88mm" height="248.01mm" version="1.1" viewBox="0 0 247.88 248.01" xml:space="preserve" xmlns="http://www.w3.org/2000/svg"><g transform="translate(-156.2 395.17)"><path d="m317.6-185.13c-3.9295-0.90815-15.007-6.5763-18.394-9.4115-6.9072-5.7829-11.904-13.617-14.368-22.524-1.6531-5.9774-1.6628-25.136-0.0164-32.152 0.63746-2.7165 1.646-5.5338 2.2411-6.2608 1.0334-1.2622 1.3703-1.2917 7.4852-0.6552 10.556 1.0989 22.488 5.0511 30.328 10.046 5.0396 3.2106 12.192 10.688 14.591 15.255 4.0477 7.7043 6.3137 18.701 5.5464 26.917-0.55825 5.9782-1.047 6.3258-8.1762 5.8148-3.1855-0.22829-6.3713-0.57041-7.0795-0.76025-1.1538-0.30932-1.397 0.18382-2.3407 4.7479-0.5792 2.8012-1.5454 6.1304-2.147 7.3983-1.2016 2.5322-2.453 2.7907-7.6713 1.5847z" fill="#fff" stroke-width=".64032"/><path d="m218.51-147.29c-15.314-0.23753-20.372-0.72947-27.384-2.6633-5.3515-1.4758-8.3654-2.8677-13.403-6.1898l-3.349-2.2085-7.0603-7.0284-2.2794-3.4396c-2.2783-3.4379-3.6737-5.9152-3.6737-6.5222 0-0.17718-0.22908-0.80621-0.50908-1.3979-1.4351-3.0325-2.5539-6.5244-2.7633-8.6246-0.0802-0.80493-0.32928-1.9024-0.55343-2.4389-0.28329-0.67799-0.40755-1.8638-0.40755-3.889 0-2.168-0.11848-3.2027-0.46302-4.0434l-0.46302-1.1298v-146.84l0.46302-1.1298 0.46302-1.1298v-7.2799l0.42942-0.61308c0.25146-0.35901 0.51322-1.5073 0.63163-2.7708 0.11122-1.1868 0.389-2.634 0.6173-3.2161 0.2283-0.58208 0.42032-1.2709 0.4267-1.5307 6e-3 -0.25978 0.17852-0.73603 0.38252-1.0583s0.45187-1.0027 0.55082-1.512c0.25235-1.2989 3.4718-7.641 4.3652-8.599 0.40709-0.43657 0.82897-1.0872 0.93752-1.4459 0.10854-0.35868 1.1039-1.6137 2.212-2.7889 1.108-1.1752 2.2195-2.5224 2.4698-2.9937s0.8445-1.0618 1.3203-1.3122c0.47581-0.25036 1.8188-1.3639 2.9844-2.4745 1.1656-1.1106 2.395-2.1034 2.732-2.2062 0.33698-0.10276 1.0056-0.53176 1.4857-0.95335 0.48016-0.42158 1.7523-1.1944 2.8269-1.7173 1.0746-0.52292 2.5977-1.2941 3.3845-1.7137s1.9439-0.83989 2.5712-0.93396c0.62727-0.0941 1.278-0.33668 1.446-0.53914s0.55882-0.37334 0.86842-0.37972c0.3096-6e-3 1.0392-0.19841 1.6212-0.42671s2.0293-0.50608 3.2161-0.6173c1.2636-0.11841 2.4118-0.38017 2.7708-0.63163l0.61308-0.42942h8.3831l2.4794-1.0652 145.52 0.1456 1.0583 0.44813c0.77686 0.32894 1.8522 0.45122 4.0434 0.45974 2.083 8e-3 3.2823 0.1362 3.9688 0.42385 0.54103 0.22673 1.6981 0.47548 2.5712 0.55277 2.9898 0.26468 8.4534 2.2313 12.754 4.5909 9.8463 5.4021 18.195 15.27 21.525 25.444 0.97077 2.9653 1.9463 7.1092 2.4834 10.549 1.0866 6.9593 1.2517 16.692 1.2991 76.588 0.0408 51.609-0.12265 73.403-0.60058 80.069-0.7745 10.803-3.3316 19.2-8.0289 26.367-6.4658 9.8646-16.572 17.122-27.873 20.015-5.5571 1.4225-10.063 1.8636-21.932 2.147-9.3455 0.22311-113.76 0.29539-127.13 0.088zm22.545-37.256c6.8425-1.6015 14.04-4.9994 19.41-9.163 4.2675-3.3089 9.1272-9.1904 11.535-13.96 2.7713-5.49 4.4044-12.091 5.035-20.352l0.3182-4.1686-0.31328-4.695c-0.36054-5.4032-1.0098-9.6513-2.1937-14.352-0.89149-3.54-1.5508-5.1269-2.24-5.3913-0.7759-0.29775-5.234-0.17269-8.5965 0.24114-5.3454 0.65789-9.5838 1.6286-15.073 3.4524-12.519 4.1593-20.917 10.056-27.031 18.98-1.7766 2.5934-4.0399 7.1821-5.0665 10.272-1.9341 5.8212-2.7618 12.79-2.2955 19.326l0.27017 3.7868 0.59097 1.1906c0.3832 0.77205 0.91652 1.3585 1.517 1.6682l0.92604 0.47758 2.7781-0.17281c1.528-0.0951 4.3259-0.39872 6.2177-0.67481s3.6398-0.50254 3.8846-0.50321c0.34139-9.3e-4 0.54645 0.47613 0.88086 2.0493 1.0038 4.7219 2.0136 8.6418 2.5441 9.8748 0.31138 0.72384 0.91663 1.611 1.345 1.9714 0.97897 0.82375 2.4802 0.86213 5.5566 0.14205zm83.753-0.41834c0.96789-1.1742 2.143-4.8748 3.1279-9.8501l0.74635-3.7703 0.93932 5e-3c0.51663 3e-3 1.8918 0.17097 3.056 0.37397 3.02 0.52662 5.2235 0.73838 7.836 0.75306l2.2798 0.0128 0.81005-0.57681c0.44552-0.31724 0.93728-0.96232 1.0928-1.4335 0.86583-2.6235 1.0685-10.254 0.39975-15.049-0.75484-5.412-2.4688-11.002-4.8151-15.704-2.9072-5.8258-8.1684-11.478-14.995-16.11-4.6608-3.1625-14.596-7.2183-21.447-8.7546-4.326-0.97023-10.231-1.7257-13.488-1.7257h-2.7137l-0.68989 0.54267c-1.2344 0.97094-2.9152 7.6352-3.767 14.935-0.53945 4.6234-0.3956 14.654 0.2713 18.918 1.6492 10.544 5.6127 18.675 12.436 25.511 3.1878 3.194 6.5484 5.5382 11.553 8.0592 5.7704 2.9065 11.443 4.7143 14.965 4.7687l1.6344 0.0252zm-88.605-70.641c8.427-1.1978 18.062-4.6578 26.492-9.5136 4.2124-2.4264 5.3744-3.2963 5.811-4.3505l0.32292-0.77959-0.44681-1.537c-0.6258-2.1527-3.3098-8.1381-5.2007-11.598-1.9671-3.5991-5.3939-8.7929-7.7683-11.774-2.3055-2.8946-6.3408-7.0262-8.8189-9.0294-6.9165-5.5908-15.336-8.7669-24.248-9.1474-7.4181-0.31671-15.576 1.3865-22.528 4.7033-3.016 1.439-3.7982 2.2021-3.7982 3.7058 0 1.3568 1.2109 4.6059 3.4336 9.2134 1.0113 2.0962 1.7745 3.915 1.6962 4.0418-0.0784 0.12681-1.5399 0.92721-3.2479 1.7786-3.7298 1.8593-7.5881 4.2129-8.4965 5.1828-1.4192 1.5153-0.75841 3.5718 2.9094 9.0552 5.71 8.5366 13.226 14.776 21.452 17.809 2.6542 0.97862 4.7296 1.5254 8.0505 2.1209 3.3828 0.60663 10.536 0.6653 14.386 0.118zm46.376-23.34c2.6341-1.9608 10.161-9.6723 12.855-13.171 6.1671-8.0074 10.288-16.407 12.006-24.473l0.59191-2.7781 0.0146-4.7625c0.0176-5.7443-0.41079-8.4831-2.1269-13.598-1.2792-3.8131-2.4218-6.2616-4.6727-10.013-2.9964-4.9941-7.1934-9.9018-8.9066-10.415l-0.98467-0.29502-0.90285 0.45935c-1.3844 0.70434-4.3486 3.1559-7.019 5.8049-1.3266 1.316-2.6594 2.6135-2.9618 2.8834l-0.54987 0.49066-3.9174-3.7756c-4.5435-4.3791-6.2659-5.6084-7.8277-5.5869l-1.0616 0.0147-1.0406 1.0082c-3.5792 3.468-7.4117 8.8868-9.8555 13.935-3.1369 6.4796-4.415 11.901-4.407 18.691 7e-3 6.0018 0.77559 10.13 2.857 15.346 2.8638 7.1771 6.8396 13.824 11.501 19.229 2.8475 3.3013 5.5264 6.0695 8.1263 8.3969 3.7101 3.3212 4.4567 3.8308 5.6354 3.8467l0.96597 0.013z" fill="#fc07b1"/><path d="m219.04-147.29c-17.437-0.25553-21.929-0.76458-30.427-3.4486-6.2198-1.9643-12.307-5.7396-17.476-10.838-3.1158-3.0734-4.2388-4.4423-6.6647-8.1237-1.81-2.7467-2.5735-4.1351-3.0086-5.4707-0.23705-0.72761-0.83337-2.1827-1.3252-3.2336-0.4918-1.0509-0.8994-2.0629-0.90579-2.249-6e-3 -0.18604-0.19262-0.81451-0.41385-1.3966s-0.50649-1.99-0.63391-3.1287c-0.12741-1.1387-0.38212-2.2516-0.56602-2.4732-0.21627-0.26059-0.38976-1.7395-0.49127-4.1877-0.11336-2.734-0.2637-3.9135-0.54148-4.2482l-0.38456-0.46337v-147.47l0.39687-0.47789c0.30293-0.36476 0.4282-1.4925 0.52917-4.7637 0.0948-3.0702 0.23473-4.4089 0.49343-4.7198 0.20202-0.24272 0.43706-1.4103 0.53344-2.6497 0.0948-1.2187 0.30855-2.3806 0.47508-2.5821 0.16653-0.20144 0.38633-0.8425 0.48845-1.4246 0.10211-0.58208 0.34223-1.3088 0.53359-1.615 0.19137-0.30615 0.43298-1.01 0.53694-1.5641 0.24469-1.3044 3.6141-8.0636 4.353-8.7322 0.31201-0.28236 0.74095-0.929 0.95319-1.437s1.2442-1.8218 2.2933-2.9196 2.1122-2.3848 2.3626-2.8599c0.25036-0.47513 0.84395-1.0687 1.3191-1.3191 0.47514-0.25036 1.7621-1.3135 2.8599-2.3626s2.4116-2.081 2.9196-2.2933c0.50797-0.21224 1.1508-0.63694 1.4284-0.94377 0.65905-0.72824 7.4689-4.1238 8.7538-4.3648 0.54693-0.1026 1.2449-0.34312 1.551-0.53448 0.30614-0.19137 1.0329-0.43148 1.615-0.5336s1.2232-0.32192 1.4246-0.48845c0.20144-0.16653 1.3634-0.38031 2.5821-0.47508 1.2394-0.0964 2.407-0.33143 2.6498-0.53343 0.31687-0.26371 1.7261-0.39696 5.2231-0.4939l4.7892-0.13275 1.3709-0.93073 145.79 0.1379 0.472 0.39175c0.3503 0.29073 1.476 0.42717 4.3659 0.52916 2.5387 0.0896 4.0324 0.25244 4.2918 0.46791 0.21886 0.18177 1.4274 0.43483 2.6855 0.56236 1.2582 0.12753 2.4368 0.35511 2.619 0.50573 0.18227 0.15063 0.80765 0.35741 1.3897 0.45953s1.2982 0.33528 1.5914 0.51814c0.29318 0.18287 0.94802 0.42114 1.4552 0.5295 1.9456 0.41568 6.6487 3.0216 10.937 6.0602 5.1721 3.6647 11.135 10.859 14.06 16.963 2.8363 5.92 4.5952 13.487 5.1374 22.102 0.49986 7.9421 0.60388 20.804 0.62055 76.72 0.02 67.236-0.0878 72.998-1.5188 81.156-1.2446 7.0957-3.6317 13.301-7.2026 18.724-6.3844 9.6958-16.548 16.955-27.754 19.824-5.7256 1.4656-10.156 1.8847-22.726 2.1496-10.662 0.22465-111.65 0.29436-125.81 0.0868zm24.606-37.935c5.7966-1.6974 12.311-4.9832 16.82-8.4836 4.3612-3.3857 9.1403-9.209 11.654-14.2 2.6755-5.3128 4.2911-11.923 4.9164-20.114l0.3182-4.1686-0.31328-4.695c-0.36054-5.4032-1.0098-9.6513-2.1937-14.352-0.89149-3.54-1.5508-5.1269-2.24-5.3913-0.7759-0.29775-5.234-0.17269-8.5965 0.24114-5.3454 0.65789-9.5838 1.6286-15.073 3.4524-12.519 4.1593-20.917 10.056-27.031 18.98-1.7524 2.5581-4.016 7.1334-5.0635 10.234-1.9138 5.6657-2.7645 12.833-2.2985 19.364l0.27017 3.7868 0.59097 1.1906c0.38214 0.76991 0.91818 1.3603 1.517 1.6708l0.92604 0.48012 2.7781-0.1714c1.528-0.0943 4.3259-0.39907 6.2177-0.67734 1.8918-0.27826 3.6398-0.50649 3.8846-0.50716 0.34139-9.3e-4 0.54645 0.47613 0.88086 2.0493 1.0038 4.7219 2.0136 8.6418 2.5441 9.8748 0.31138 0.72384 0.93464 1.6261 1.385 2.0051l0.81886 0.68902 1.9902-0.14475c1.1002-0.08 3.4692-0.57786 5.2975-1.1132zm81.163 0.25901c0.96577-1.1716 2.1367-4.8548 3.1412-9.8805l0.75962-3.8007 1.4552 0.14553c0.80036 0.08 2.682 0.33534 4.1814 0.56733 1.4994 0.23199 4.005 0.44804 5.5679 0.48011l2.8418 0.0583 0.73803-0.48358c0.40592-0.26597 0.90451-0.88199 1.108-1.3689 1.173-2.8074 1.1698-12.704-6e-3 -18.327-1.3196-6.3113-3.7443-12.308-6.7513-16.699-2.9334-4.2828-7.3114-8.4805-12.558-12.04-4.6933-3.1846-14.556-7.2093-21.463-8.7584-4.3107-0.9668-10.219-1.722-13.472-1.722h-2.7137l-0.67636 0.53203c-1.2767 1.0042-2.9283 7.5485-3.799 15.053-0.52361 4.5128-0.36814 14.604 0.28982 18.811 0.55035 3.5186 1.7733 8.1684 2.9563 11.241 2.673 6.9415 8.2651 14.113 14.389 18.453 2.7935 1.9797 9.118 5.3174 12.169 6.4221 3.162 1.1449 7.6654 2.2085 9.4396 2.2295l1.6344 0.0194zm-89.629-70.529c5.8226-0.65367 14.128-3.0825 20.505-5.9968 3.6506-1.6682 9.944-5.1816 11.541-6.4433 0.52697-0.4162 1.1034-1.1075 1.281-1.5363l0.32292-0.77959-0.44681-1.537c-0.24575-0.84534-1.1585-3.1458-2.0284-5.1121-4.1573-9.3976-9.9362-17.958-16.262-24.089-5.1249-4.9674-9.2605-7.6535-15.178-9.8583-7.2977-2.7189-16.257-3.2657-24.209-1.4776-5.6509 1.2706-12.975 4.2157-14.127 5.6808-0.35055 0.44565-0.55704 1.0915-0.55704 1.7424 0 1.3383 1.4622 5.2206 3.5944 9.5436 0.93096 1.8874 1.6276 3.5369 1.5482 3.6655-0.0795 0.12857-1.5369 0.92914-3.2389 1.779-3.7219 1.8586-7.6113 4.2345-8.5183 5.2035l-0.66146 0.70664 0.0378 2.5628 1.2724 2.2027c6.1057 10.569 14.467 18.04 24.085 21.522 6.4659 2.3406 13.428 3.0756 21.039 2.2212zm100.54 0.16499c3.5856-0.41971 7.5659-1.3607 10.305-2.4361 3.0698-1.2054 7.2788-3.5198 9.6956-5.3313 5.1265-3.8427 11.598-11.356 14.525-16.862l0.97743-1.8387-0.1264-1.1352c-0.0695-0.62437-0.34884-1.3866-0.62071-1.6939-0.83656-0.94552-5.0959-3.6283-8.3769-5.2763-1.7161-0.86195-3.1778-1.7176-3.2484-1.9014-0.0705-0.18381 0.57575-1.8175 1.4362-3.6303 2.2449-4.7299 3.2225-7.3223 3.3883-8.9847l0.14509-1.4552-0.58478-0.73811c-1.1935-1.5065-6.2406-3.6002-12.568-5.2138-7.0279-1.7922-13.105-2.0028-19.479-0.67513-10.401 2.1667-17.66 6.8236-26 16.681-3.6242 4.2833-4.5734 5.5914-6.5081 8.9685-2.6051 4.5473-6.2544 11.908-6.8594 13.835-0.30377 0.96778-0.55231 2.2057-0.55231 2.7509v0.99129l1.157 1.0147c0.63632 0.55807 2.9878 2.0515 5.2255 3.3188 8.9407 5.0633 17.376 8.0181 26.61 9.3218 5.3358 0.75328 7.1176 0.79842 11.459 0.29025zm-53.143-23.618c2.6341-1.9608 10.161-9.6723 12.855-13.171 2.8342-3.6799 5.3143-7.5755 7.3267-11.508 2.4493-4.7864 3.6522-8.1174 4.6816-12.965l0.58998-2.7781 0.0146-4.7625c0.0176-5.7443-0.41079-8.4831-2.1269-13.598-1.2792-3.8131-2.4218-6.2616-4.6727-10.013-2.9964-4.9941-7.1934-9.9018-8.9066-10.415l-0.98467-0.29502-0.90285 0.45935c-1.3844 0.70434-4.3486 3.1559-7.019 5.8049-1.3266 1.316-2.6594 2.6135-2.9618 2.8834l-0.54987 0.49066-3.9174-3.7756c-4.5448-4.3803-6.2658-5.6084-7.8289-5.5868l-1.0628 0.0147-1.1736 1.1405c-3.5103 3.4113-7.283 8.7686-9.7199 13.802-3.1369 6.4796-4.415 11.901-4.407 18.691 7e-3 6.0018 0.77559 10.13 2.857 15.346 2.8638 7.1771 6.8396 13.824 11.501 19.229 2.8475 3.3013 5.5264 6.0695 8.1263 8.3969 3.7101 3.3212 4.4567 3.8308 5.6354 3.8467l0.96597 0.013z" fill="#252a30"/><path d="m273.01-283.49c-7.0218-6.769-11.16-12.148-14.909-19.378-4.7413-9.1453-5.7062-12.695-5.7433-21.13-0.0235-5.338 0.2852-8.4113 1.1222-11.172 3.1352-10.341 12.344-23.533 15.687-22.472 0.72795 0.23106 3.4124 2.3768 5.9654 4.7683l4.6418 4.3482 5.3814-4.7048c2.9598-2.5876 5.74-4.7048 6.1784-4.7048 1.4067 0 4.0997 2.5511 6.979 6.6112 6.3356 8.9339 9.3583 17.622 9.3583 26.9 0 9.3881-2.9655 17.864-9.868 28.205-3.7616 5.6353-16.167 18.324-17.915 18.324-0.59155 0-3.6869-2.5174-6.8786-5.5942z" fill="#fff" stroke-width=".64032"/><path d="m235.05-185.81c-0.53858-0.76893-1.4569-3.5783-2.0406-6.2431-1.5366-7.0142-1.4846-6.9538-5.5005-6.3825-1.8689 0.2659-5.0386 0.50448-7.0436 0.53019-5.0598 0.0649-5.6391-0.86869-5.6391-9.0872 0-25.397 15.332-42.261 43.759-48.133 5.1924-1.0725 13.498-1.5814 14.212-0.87071 1.0463 1.0412 2.9327 9.6707 3.634 16.624 2.6707 26.481-8.9836 46.098-31.703 53.363-6.2287 1.9917-8.3913 2.0363-9.6779 0.19935z" fill="#fff" stroke-width=".64032"/><path d="m219.74-256.49c-11.256-2.5236-20.319-9.1401-27.419-20.016-4.313-6.6069-4.1658-7.3084 2.3347-11.13 2.8174-1.6561 5.5126-3.2457 5.9893-3.5324 0.68973-0.41484 0.32126-1.7981-1.8042-6.7728-1.469-3.4383-2.5758-6.7471-2.4596-7.353s1.6485-1.8803 3.405-2.8321c9.0887-4.9251 23.413-6.1436 33.426-2.8432 12.31 4.0576 22.845 14.45 30.911 30.493 3.8218 7.6012 4.6837 10.213 3.7442 11.345-1.2389 1.4927-8.9874 5.8595-14.59 8.2225-11.361 4.7916-24.282 6.494-33.537 4.4189z" fill="#fff" stroke-width=".64032"/></g></svg>
